<mxfile host="65bd71144e">
    <diagram id="wXBKooOv0GcpBd2YHlwC" name="Page-1">
        <mxGraphModel dx="1410" dy="1173" grid="1" gridSize="10" guides="1" tooltips="1" connect="1" arrows="1" fold="1" page="1" pageScale="1" pageWidth="1169" pageHeight="827" math="0" shadow="0">
            <root>
                <mxCell id="0"/>
                <mxCell id="1" parent="0"/>
                <mxCell id="32" value="" style="edgeStyle=none;html=1;entryX=0;entryY=0.5;entryDx=0;entryDy=0;" parent="1" edge="1">
                    <mxGeometry relative="1" as="geometry">
                        <mxPoint x="100" y="275" as="targetPoint"/>
                    </mxGeometry>
                </mxCell>
                <mxCell id="66" value="" style="group" parent="1" vertex="1" connectable="0">
                    <mxGeometry x="280" y="298" width="240" height="170" as="geometry"/>
                </mxCell>
                <mxCell id="64" value="" style="rounded=0;whiteSpace=wrap;html=1;" parent="66" vertex="1">
                    <mxGeometry x="5" width="230" height="154" as="geometry"/>
                </mxCell>
                <mxCell id="52" value="" style="group" parent="66" vertex="1" connectable="0">
                    <mxGeometry width="240" height="170" as="geometry"/>
                </mxCell>
                <mxCell id="50" value="D" style="group" parent="52" vertex="1" connectable="0">
                    <mxGeometry x="19.200000000000003" y="11" width="201.60000000000002" height="129.00000000000006" as="geometry"/>
                </mxCell>
                <mxCell id="47" value="" style="shape=parallelogram;perimeter=parallelogramPerimeter;whiteSpace=wrap;html=1;fixedSize=1;" parent="50" vertex="1">
                    <mxGeometry y="62.27586206896551" width="201.6" height="66.72413793103448" as="geometry"/>
                </mxCell>
                <mxCell id="48" value="" style="shape=parallelogram;perimeter=parallelogramPerimeter;whiteSpace=wrap;html=1;fixedSize=1;" parent="50" vertex="1">
                    <mxGeometry y="33.36206896551724" width="201.6" height="66.72413793103448" as="geometry"/>
                </mxCell>
                <mxCell id="49" value="" style="shape=parallelogram;perimeter=parallelogramPerimeter;whiteSpace=wrap;html=1;fixedSize=1;" parent="50" vertex="1">
                    <mxGeometry width="201.6" height="66.72413793103448" as="geometry"/>
                </mxCell>
                <mxCell id="56" value="Story" style="text;html=1;strokeColor=none;fillColor=none;align=center;verticalAlign=middle;whiteSpace=wrap;rounded=0;" parent="50" vertex="1">
                    <mxGeometry x="19.200000000000003" y="80.09000000000003" width="38.400000000000006" height="20" as="geometry"/>
                </mxCell>
                <mxCell id="57" value="Assets + Coding" style="text;html=1;strokeColor=none;fillColor=none;align=center;verticalAlign=middle;whiteSpace=wrap;rounded=0;" parent="50" vertex="1">
                    <mxGeometry x="19.2" y="109" width="100.8" height="20" as="geometry"/>
                </mxCell>
                <mxCell id="53" value="Design" style="text;html=1;strokeColor=none;fillColor=none;align=center;verticalAlign=middle;whiteSpace=wrap;rounded=0;" parent="50" vertex="1">
                    <mxGeometry x="19.200000000000003" y="46.72000000000003" width="38.400000000000006" height="20" as="geometry"/>
                </mxCell>
                <mxCell id="73" value="" style="group" parent="1" vertex="1" connectable="0">
                    <mxGeometry x="1240" y="298" width="240" height="170" as="geometry"/>
                </mxCell>
                <mxCell id="74" value="" style="rounded=0;whiteSpace=wrap;html=1;" parent="73" vertex="1">
                    <mxGeometry x="5" width="230" height="154" as="geometry"/>
                </mxCell>
                <mxCell id="75" value="" style="group" parent="73" vertex="1" connectable="0">
                    <mxGeometry width="240" height="170" as="geometry"/>
                </mxCell>
                <mxCell id="76" value="D" style="group" parent="75" vertex="1" connectable="0">
                    <mxGeometry x="19.200000000000003" y="11" width="201.60000000000002" height="129.00000000000006" as="geometry"/>
                </mxCell>
                <mxCell id="77" value="" style="shape=parallelogram;perimeter=parallelogramPerimeter;whiteSpace=wrap;html=1;fixedSize=1;" parent="76" vertex="1">
                    <mxGeometry y="62.27586206896551" width="201.6" height="66.72413793103448" as="geometry"/>
                </mxCell>
                <mxCell id="78" value="" style="shape=parallelogram;perimeter=parallelogramPerimeter;whiteSpace=wrap;html=1;fixedSize=1;" parent="76" vertex="1">
                    <mxGeometry y="33.36206896551724" width="201.6" height="66.72413793103448" as="geometry"/>
                </mxCell>
                <mxCell id="79" value="" style="shape=parallelogram;perimeter=parallelogramPerimeter;whiteSpace=wrap;html=1;fixedSize=1;" parent="76" vertex="1">
                    <mxGeometry width="201.6" height="66.72413793103448" as="geometry"/>
                </mxCell>
                <mxCell id="80" value="Compositing" style="text;html=1;strokeColor=none;fillColor=none;align=center;verticalAlign=middle;whiteSpace=wrap;rounded=0;" parent="76" vertex="1">
                    <mxGeometry x="9.200000000000003" y="80.09" width="87.6" height="20" as="geometry"/>
                </mxCell>
                <mxCell id="81" value="Post processing" style="text;html=1;strokeColor=none;fillColor=none;align=center;verticalAlign=middle;whiteSpace=wrap;rounded=0;" parent="76" vertex="1">
                    <mxGeometry x="19.2" y="109" width="90.8" height="20" as="geometry"/>
                </mxCell>
                <mxCell id="82" value="Object rendering" style="text;html=1;strokeColor=none;fillColor=none;align=center;verticalAlign=middle;whiteSpace=wrap;rounded=0;" parent="76" vertex="1">
                    <mxGeometry x="9.2" y="46.72" width="110.8" height="20" as="geometry"/>
                </mxCell>
                <mxCell id="90" style="edgeStyle=none;html=1;entryX=0;entryY=0.5;entryDx=0;entryDy=0;" parent="1" source="87" target="64" edge="1">
                    <mxGeometry relative="1" as="geometry"/>
                </mxCell>
                <mxCell id="87" value="Game Idea" style="ellipse;whiteSpace=wrap;html=1;aspect=fixed;fillColor=#ffe6cc;strokeColor=#d79b00;" parent="1" vertex="1">
                    <mxGeometry x="120" y="335" width="80" height="80" as="geometry"/>
                </mxCell>
                <mxCell id="93" value="" style="group" vertex="1" connectable="0" parent="1">
                    <mxGeometry x="920" y="298" width="240" height="170" as="geometry"/>
                </mxCell>
                <mxCell id="94" value="" style="rounded=0;whiteSpace=wrap;html=1;" vertex="1" parent="93">
                    <mxGeometry x="5" width="230" height="154" as="geometry"/>
                </mxCell>
                <mxCell id="95" value="" style="group" vertex="1" connectable="0" parent="93">
                    <mxGeometry width="240" height="170" as="geometry"/>
                </mxCell>
                <mxCell id="96" value="D" style="group" vertex="1" connectable="0" parent="95">
                    <mxGeometry x="19.2" y="11" width="201.6" height="129" as="geometry"/>
                </mxCell>
                <mxCell id="97" value="" style="shape=parallelogram;perimeter=parallelogramPerimeter;whiteSpace=wrap;html=1;fixedSize=1;" vertex="1" parent="96">
                    <mxGeometry y="62.27586206896548" width="201.59999999999997" height="66.72413793103445" as="geometry"/>
                </mxCell>
                <mxCell id="98" value="" style="shape=parallelogram;perimeter=parallelogramPerimeter;whiteSpace=wrap;html=1;fixedSize=1;" vertex="1" parent="96">
                    <mxGeometry y="33.362068965517224" width="201.59999999999997" height="66.72413793103445" as="geometry"/>
                </mxCell>
                <mxCell id="99" value="" style="shape=parallelogram;perimeter=parallelogramPerimeter;whiteSpace=wrap;html=1;fixedSize=1;" vertex="1" parent="96">
                    <mxGeometry width="201.59999999999997" height="66.72413793103445" as="geometry"/>
                </mxCell>
                <mxCell id="100" value="Physics simulation" style="text;html=1;strokeColor=none;fillColor=none;align=center;verticalAlign=middle;whiteSpace=wrap;rounded=0;" vertex="1" parent="96">
                    <mxGeometry x="11.799999999999999" y="80.08999999999996" width="128.19999999999996" height="19.999999999999993" as="geometry"/>
                </mxCell>
                <mxCell id="101" value="Player input" style="text;html=1;strokeColor=none;fillColor=none;align=center;verticalAlign=middle;whiteSpace=wrap;rounded=0;" vertex="1" parent="96">
                    <mxGeometry x="9.199999999999996" y="108.99999999999996" width="100.79999999999998" height="19.999999999999993" as="geometry"/>
                </mxCell>
                <mxCell id="102" value="Game logic" style="text;html=1;strokeColor=none;fillColor=none;align=center;verticalAlign=middle;whiteSpace=wrap;rounded=0;" vertex="1" parent="96">
                    <mxGeometry x="11.799999999999995" y="46.71999999999998" width="90.79999999999998" height="19.999999999999993" as="geometry"/>
                </mxCell>
                <mxCell id="104" style="edgeStyle=none;html=1;entryX=0;entryY=0.5;entryDx=0;entryDy=0;" edge="1" parent="1" source="94" target="74">
                    <mxGeometry relative="1" as="geometry"/>
                </mxCell>
                <mxCell id="107" style="edgeStyle=none;html=1;entryX=0;entryY=0.5;entryDx=0;entryDy=0;fontSize=24;" edge="1" parent="1" source="105" target="94">
                    <mxGeometry relative="1" as="geometry"/>
                </mxCell>
                <mxCell id="105" value="Run Game" style="rounded=0;whiteSpace=wrap;html=1;fontSize=24;" vertex="1" parent="1">
                    <mxGeometry x="610" y="298" width="230" height="154" as="geometry"/>
                </mxCell>
                <mxCell id="106" value="" style="edgeStyle=none;html=1;" edge="1" parent="1" source="64" target="105">
                    <mxGeometry relative="1" as="geometry"/>
                </mxCell>
                <mxCell id="110" style="edgeStyle=none;html=1;exitX=0.5;exitY=1;exitDx=0;exitDy=0;fontSize=24;" edge="1" parent="1" source="74">
                    <mxGeometry relative="1" as="geometry">
                        <mxPoint x="1040" y="452" as="targetPoint"/>
                        <Array as="points">
                            <mxPoint x="1360" y="560"/>
                            <mxPoint x="1040" y="560"/>
                        </Array>
                    </mxGeometry>
                </mxCell>
            </root>
        </mxGraphModel>
    </diagram>
</mxfile>